<?xml version="1.0" standalone="no"?>
<!DOCTYPE svg PUBLIC "-//W3C//DTD SVG 20010904//EN"
 "http://www.w3.org/TR/2001/REC-SVG-20010904/DTD/svg10.dtd">
<svg version="1.0" xmlns="http://www.w3.org/2000/svg"
 width="1024.000000pt" height="1024.000000pt" viewBox="0 0 1024.000000 1024.000000"
 preserveAspectRatio="xMidYMid meet">

<g transform="translate(0.000000,1024.000000) scale(0.100000,-0.100000)"
fill="#000000" stroke="none">
<path d="M2255 9813 c-182 -22 -389 -75 -543 -139 -479 -196 -864 -559 -1092
-1029 -109 -224 -172 -442 -200 -695 -8 -78 -11 -811 -8 -2875 4 -2598 5
-2777 22 -2875 41 -247 98 -425 201 -629 305 -608 883 -1031 1547 -1132 131
-20 171 -20 2923 -19 1813 0 2822 4 2880 11 683 76 1301 509 1620 1133 81 160
118 258 160 423 70 276 66 91 63 3198 -3 2584 -5 2807 -20 2890 -86 454 -280
827 -593 1141 -288 288 -641 479 -1055 571 l-125 28 -2875 1 c-1581 1 -2888
-1 -2905 -3z"/>
</g>
</svg>
